# xmcd CD database file
#
# Track frame offsets:
#	150
#	29584
#	55487
#	82240
#	104201
#	121038
#	143833
#	167082
#	192008
#
# Disc length: 2992 seconds
#
# Revision: 0
# Processed by: cddbd v1.5.2PL0 Copyright (c) Steve Scherf et al.
# Submitted via: CDex 1.70beta2
#
DISCID=810bae09
DTITLE=Blairman-Schönborn-Simpson - like back in the days
DYEAR=2005
DGENRE=Jazz
TTITLE0=ode to billie joe
TTITLE1=orange peel
TTITLE2=glory of love
TTITLE3=blues in the night
TTITLE4=fungii mama
TTITLE5=sonny moon for two
TTITLE6=summertime
TTITLE7=when johnny comes marching home
TTITLE8=skylark
EXTD=YEAR: 2005
EXTT0=
EXTT1=
EXTT2=
EXTT3=
EXTT4=
EXTT5=
EXTT6=
EXTT7=
EXTT8=
PLAYORDER=
